<svg xmlns="http://www.w3.org/2000/svg" shape-rendering="geometricPrecision" text-rendering="geometricPrecision" image-rendering="optimizeQuality" fill-rule="evenodd" clip-rule="evenodd" viewBox="0 0 512 143.11"><path fill="#0866FF" d="M501.36 0H10.64C4.78 0 0 4.78 0 10.64v121.83c0 5.86 4.78 10.64 10.64 10.64h490.72c5.86 0 10.64-4.78 10.64-10.64V10.64C512 4.78 507.22 0 501.36 0z"/><path fill="#075CE6" fill-rule="nonzero" d="M127.95 139.38V0h6.97v139.38zM177.98 83.44l-.18 7.12h4.18l7.12-.18.68.86-.74 8.96-7.92-.18h-3.56v.8l.49 12.9H165.7l.62-11.67-.62-28.07h26.53l.68.86-.8 8.96-9.83-.36h-4.3zm49.94 30.28h-12.47l-1.11-6.58-.06-.18-6.02-.12-5.03.24-1.05 6.64h-12.04l12.04-39.74h14.87l10.87 39.74zm-15.48-15.73l-2.7-13.02H209l-3.44 13.02 3.44.06 3.44-.06zm36.48-24.69c3.53 0 6.84.55 9.95 1.66l-2.08 9.77-.8.49c-1.07-.58-2.3-1.04-3.69-1.38-1.39-.35-2.68-.53-3.87-.53-2.5 0-4.3.73-5.4 2.18-1.11 1.46-1.66 3.88-1.66 7.28 0 3.97.63 6.87 1.9 8.69 1.27 1.82 3.26 2.74 5.96 2.74 1.15 0 2.43-.12 3.84-.34 1.41-.23 2.65-.54 3.72-.95l.98.61-.98 9.71c-2.46.77-5.31 1.16-8.54 1.16-6.59 0-11.56-1.72-14.9-5.16-3.33-3.44-5-8.45-5-15.04 0-6.64 1.79-11.78 5.37-15.42 3.59-3.64 8.65-5.47 15.2-5.47zm41.71 30.59l.67.86-.73 8.97h-28.01l.61-11.67-.61-28.07h28.5l.67.86-.8 8.96-9.76-.36h-6.33l-.12 5.59h6.08l6.39-.19.67.86-.73 8.97-7.13-.19h-5.53l-.06 2.34.13 3.44h5.89l10.2-.37zm31.2-10.63c2.58.74 4.45 1.84 5.62 3.29s1.75 3.35 1.75 5.68c0 4.14-1.69 7.16-5.07 9.06-3.38 1.9-8.42 2.86-15.14 2.86-3.72 0-8.12-.15-13.2-.43l.61-11.67-.61-28.07 17.75-.06c4.5 0 8.02.87 10.56 2.61 2.54 1.74 3.81 4.26 3.81 7.58 0 2.05-.52 3.86-1.57 5.44-1.04 1.58-2.55 2.81-4.51 3.71zm-6.45-7.37c0-1.43-.5-2.42-1.5-2.98-1.01-.55-2.88-.83-5.63-.83h-.55l-.24 8.11 4.6.19c1.15-.37 1.99-.9 2.52-1.6.53-.7.8-1.66.8-2.89zm-4.05 20.15c1.67 0 3-.37 3.96-1.11.96-.73 1.44-1.8 1.44-3.19 0-.94-.28-1.7-.83-2.27-.55-.58-1.44-1.07-2.67-1.48l-5.96.13-.06 2.7.19 4.97c2.04.17 3.35.25 3.93.25zm40.35-32.8c5.77 0 10.23 1.71 13.39 5.13 3.15 3.42 4.73 8.24 4.73 14.46 0 6.88-1.73 12.21-5.19 15.97-3.46 3.77-8.37 5.65-14.71 5.65-5.78 0-10.24-1.73-13.39-5.19-3.15-3.46-4.73-8.36-4.73-14.71 0-6.79 1.73-12.05 5.19-15.75 3.46-3.71 8.36-5.56 14.71-5.56zm-1.11 9.83c-1.59 0-2.8.27-3.62.83-.82.55-1.4 1.52-1.75 2.91-.35 1.4-.52 3.42-.52 6.09 0 3.39.18 5.97.55 7.73.37 1.76.99 2.99 1.87 3.69.88.7 2.18 1.04 3.9 1.04 1.6 0 2.81-.27 3.63-.83.82-.55 1.4-1.53 1.75-2.94.34-1.42.52-3.45.52-6.11 0-3.36-.18-5.92-.55-7.68-.37-1.76-1-2.99-1.88-3.69-.88-.69-2.18-1.04-3.9-1.04zm41.22-9.83c5.77 0 10.23 1.71 13.38 5.13 3.16 3.42 4.73 8.24 4.73 14.46 0 6.88-1.73 12.21-5.19 15.97-3.45 3.77-8.36 5.65-14.71 5.65-5.77 0-10.23-1.73-13.38-5.19-3.16-3.46-4.73-8.36-4.73-14.71 0-6.79 1.73-12.05 5.19-15.75 3.46-3.71 8.36-5.56 14.71-5.56zm-1.11 9.83c-1.6 0-2.81.27-3.63.83-.81.55-1.4 1.52-1.74 2.91-.35 1.4-.53 3.42-.53 6.09 0 3.39.19 5.97.56 7.73.36 1.76.99 2.99 1.87 3.69.88.7 2.18 1.04 3.9 1.04 1.6 0 2.8-.27 3.62-.83.82-.55 1.41-1.53 1.75-2.94.35-1.42.53-3.45.53-6.11 0-3.36-.19-5.92-.56-7.68-.36-1.76-.99-2.99-1.87-3.69-.88-.69-2.18-1.04-3.9-1.04zm46.43 9.7c3.77 5.9 8.07 12.02 12.9 18.37l-.18 1.35c-4.3.94-8.4 1.59-12.29 1.96l-1.35-.73c-4.18-7.17-7.59-13.25-10.26-18.24l-.12 5.34.49 12.9h-12.34l.61-11.67-.61-28.07h12.53l-.43 16.58 7.61-12.28 2.09-4.3h13.02l-11.67 18.79z"/><path fill="#fff" fill-rule="nonzero" d="M177.98 81.64l-.18 7.13h4.18l7.12-.19.68.86-.74 8.97-7.92-.19h-3.56v.8l.49 12.9H165.7l.62-11.67-.62-28.07h26.53l.68.86-.8 8.97-9.83-.37h-4.3zm49.94 30.28h-12.47l-1.11-6.57-.06-.18-6.02-.13-5.03.25-1.05 6.63h-12.04l12.04-39.74h14.87l10.87 39.74zM212.44 96.2l-2.7-13.02H209l-3.44 13.02 3.44.06 3.44-.06zm36.48-24.69c3.53 0 6.84.55 9.95 1.66l-2.08 9.76-.8.49c-1.07-.57-2.3-1.03-3.69-1.38-1.39-.35-2.68-.52-3.87-.52-2.5 0-4.3.72-5.4 2.18-1.11 1.45-1.66 3.88-1.66 7.28 0 3.97.63 6.86 1.9 8.69 1.27 1.82 3.26 2.73 5.96 2.73 1.15 0 2.43-.11 3.84-.34 1.41-.22 2.65-.54 3.72-.95l.98.61-.98 9.71c-2.46.78-5.31 1.17-8.54 1.17-6.59 0-11.56-1.72-14.9-5.16-3.33-3.44-5-8.46-5-15.05 0-6.63 1.79-11.77 5.37-15.42 3.59-3.64 8.65-5.46 15.2-5.46zm41.71 30.58l.67.86-.73 8.97h-28.01l.61-11.67-.61-28.07h28.5l.67.86-.8 8.97-9.76-.37h-6.33l-.12 5.59h6.08l6.39-.18.67.85-.73 8.97-7.13-.18h-5.53l-.06 2.33.13 3.44h5.89l10.2-.37zm31.2-10.62c2.58.73 4.45 1.83 5.62 3.28 1.17 1.46 1.75 3.35 1.75 5.68 0 4.14-1.69 7.16-5.07 9.06-3.38 1.91-8.42 2.86-15.14 2.86-3.72 0-8.12-.14-13.2-.43l.61-11.67-.61-28.07 17.75-.06c4.5 0 8.02.87 10.56 2.61 2.54 1.74 3.81 4.27 3.81 7.59 0 2.04-.52 3.86-1.57 5.43-1.04 1.58-2.55 2.82-4.51 3.72zm-6.45-7.37c0-1.44-.5-2.43-1.5-2.98-1.01-.55-2.88-.83-5.63-.83h-.55l-.24 8.11 4.6.18c1.15-.37 1.99-.9 2.52-1.6.53-.69.8-1.65.8-2.88zm-4.05 20.14c1.67 0 3-.36 3.96-1.1.96-.74 1.44-1.8 1.44-3.2 0-.94-.28-1.7-.83-2.27-.55-.57-1.44-1.06-2.67-1.47l-5.96.12-.06 2.7.19 4.98c2.04.16 3.35.24 3.93.24zm40.35-32.79c5.77 0 10.23 1.71 13.39 5.12 3.15 3.42 4.73 8.24 4.73 14.47 0 6.88-1.73 12.2-5.19 15.97-3.46 3.76-8.37 5.65-14.71 5.65-5.78 0-10.24-1.73-13.39-5.19-3.15-3.46-4.73-8.37-4.73-14.71 0-6.8 1.73-12.05 5.19-15.76 3.46-3.7 8.36-5.55 14.71-5.55zm-1.11 9.82c-1.59 0-2.8.28-3.62.83-.82.55-1.4 1.53-1.75 2.92-.35 1.39-.52 3.42-.52 6.08 0 3.4.18 5.98.55 7.74.37 1.76.99 2.99 1.87 3.68.88.7 2.18 1.05 3.9 1.05 1.6 0 2.81-.28 3.63-.83.82-.56 1.4-1.54 1.75-2.95.34-1.41.52-3.45.52-6.11 0-3.36-.18-5.92-.55-7.68-.37-1.76-1-2.99-1.88-3.68-.88-.7-2.18-1.05-3.9-1.05zm41.22-9.82c5.77 0 10.23 1.71 13.38 5.12 3.16 3.42 4.73 8.24 4.73 14.47 0 6.88-1.73 12.2-5.19 15.97-3.45 3.76-8.36 5.65-14.71 5.65-5.77 0-10.23-1.73-13.38-5.19-3.16-3.46-4.73-8.37-4.73-14.71 0-6.8 1.73-12.05 5.19-15.76 3.46-3.7 8.36-5.55 14.71-5.55zm-1.11 9.82c-1.6 0-2.81.28-3.63.83-.81.55-1.4 1.53-1.74 2.92-.35 1.39-.53 3.42-.53 6.08 0 3.4.19 5.98.56 7.74.36 1.76.99 2.99 1.87 3.68.88.7 2.18 1.05 3.9 1.05 1.6 0 2.8-.28 3.62-.83.82-.56 1.41-1.54 1.75-2.95.35-1.41.53-3.45.53-6.11 0-3.36-.19-5.92-.56-7.68-.36-1.76-.99-2.99-1.87-3.68-.88-.7-2.18-1.05-3.9-1.05zm46.43 9.71c3.77 5.89 8.07 12.01 12.9 18.36l-.18 1.35c-4.3.94-8.4 1.6-12.29 1.97l-1.35-.74c-4.18-7.16-7.59-13.25-10.26-18.24l-.12 5.34.49 12.9h-12.34l.61-11.67-.61-28.07h12.53l-.43 16.59 7.61-12.29 2.09-4.3h13.02l-11.67 18.8z"/><path fill="#233B6E" fill-rule="nonzero" d="M1.64 129.56c0 2.7 1.1 5.16 2.88 6.93a9.788 9.788 0 006.94 2.89h489.08c2.71 0 5.16-1.11 6.94-2.88a9.797 9.797 0 002.88-6.94L512 9.01v120.55c0 3.15-1.29 6.02-3.36 8.09a11.439 11.439 0 01-8.1 3.37H11.46c-3.15 0-6.02-1.29-8.1-3.37A11.43 11.43 0 010 129.56V9.01l1.64 120.55z"/><path fill="#075CE6" fill-rule="nonzero" d="M170.66 39.31l-.11 4.2h2.46l4.2-.11.39.51-.43 5.28-4.67-.11h-2.1v.47l.29 7.61h-7.27l.36-6.88-.36-16.55h15.63l.4.51-.47 5.29-5.79-.22h-2.53zm17.15 10.24l.29 7.61h-7.27l.36-6.88-.36-16.55h7.38l-.4 15.82zm25.81-.03l.29 7.64h-7.89l-6.59-12.53H199l-.04 4.05.29 8.48h-6.59l.36-6.88-.36-16.55h7.89l6.59 12.53h.44l-.22-12.27 6.66-.4-.4 15.93zm15.31-15.93c3.45 0 6.1.94 7.95 2.81 1.85 1.87 2.77 4.56 2.77 8.08 0 4.18-1.08 7.39-3.22 9.63-2.15 2.25-5.23 3.37-9.23 3.37-2.51 0-5.46-.11-8.84-.32l.36-6.88-.36-16.55 10.57-.14zm-.36 18.5c1.14 0 2-.45 2.59-1.36.59-.91.89-2.39.89-4.47 0-1.76-.12-3.15-.37-4.16-.24-1.02-.62-1.75-1.16-2.19-.52-.45-1.26-.67-2.2-.67-.92 0-1.82.05-2.72.14l-.25 10.17.07 2.25c1.45.19 2.5.29 3.15.29zm38.3-6.48l-.04 3.73c-.02 2.65-.92 4.69-2.68 6.11-1.76 1.43-4.28 2.14-7.56 2.14-3.16 0-5.58-.71-7.26-2.14-1.68-1.42-2.48-3.46-2.41-6.11l.11-3.73-.22-11.88h7.28l-.33 14.63c-.02 1.23.22 2.12.71 2.68.49.55 1.3.83 2.41.83 1.13 0 1.95-.28 2.46-.83.51-.56.75-1.45.72-2.68l-.32-14.63h7.38l-.25 11.88zm12.96-12.31c2.29 0 4.56.42 6.8 1.27l-1.16 5.9-1.01.43c-1.01-.62-2.01-1.12-3-1.48-.99-.36-1.79-.55-2.39-.55-.56 0-1 .11-1.33.33-.32.22-.48.51-.48.87 0 .46.24.85.74 1.18.49.32 1.32.75 2.48 1.28 1.35.6 2.46 1.17 3.33 1.68.87.52 1.63 1.24 2.28 2.14.65.91.98 2.02.98 3.35 0 1.47-.41 2.8-1.22 4-.81 1.19-1.96 2.14-3.45 2.84-1.5.7-3.24 1.05-5.22 1.05-2.46 0-5.04-.46-7.74-1.38l1.05-6.29.72-.44c1.11.85 2.3 1.52 3.57 2.01 1.26.5 2.32.74 3.16.74.68 0 1.17-.11 1.47-.34.3-.23.45-.51.45-.85 0-.51-.26-.94-.78-1.29-.51-.35-1.35-.78-2.51-1.28-1.33-.58-2.42-1.13-3.28-1.65-.85-.52-1.6-1.23-2.22-2.14-.63-.9-.94-2.02-.94-3.34 0-1.52.41-2.89 1.23-4.11.82-1.22 1.96-2.18 3.43-2.88 1.48-.7 3.15-1.05 5.04-1.05zm25.3 0c3.4 0 6.03 1.01 7.89 3.02 1.86 2.02 2.79 4.86 2.79 8.53 0 4.05-1.02 7.19-3.06 9.41-2.04 2.22-4.93 3.33-8.67 3.33-3.4 0-6.03-1.02-7.89-3.06-1.86-2.04-2.79-4.93-2.79-8.67 0-4 1.02-7.1 3.06-9.28 2.04-2.19 4.93-3.28 8.67-3.28zm-.65 5.79c-.95 0-1.66.17-2.14.49-.48.33-.83.9-1.03 1.72-.21.82-.31 2.02-.31 3.58 0 2.01.11 3.53.33 4.56.21 1.04.58 1.77 1.1 2.18.52.41 1.29.61 2.3.61.94 0 1.65-.16 2.14-.48.48-.33.82-.91 1.03-1.74.2-.84.3-2.04.3-3.6 0-1.98-.1-3.49-.32-4.53s-.58-1.76-1.1-2.17c-.52-.41-1.29-.62-2.3-.62zm34.68 10.43l.28 7.64h-7.89l-6.58-12.53h-.44l-.03 4.05.28 8.48h-6.58l.36-6.88-.36-16.55h7.89l6.58 12.53h.44l-.22-12.27 6.66-.4-.39 15.93z"/><path fill="#fff" fill-rule="nonzero" d="M169.64 38.08l-.11 4.2H172l4.2-.11.39.51-.43 5.29-4.67-.11h-2.1v.47l.29 7.6h-7.28l.36-6.88-.36-16.54h15.64l.4.51-.47 5.28-5.79-.22h-2.54zm17.16 10.25l.29 7.6h-7.28l.37-6.88-.37-16.54h7.39l-.4 15.82zm25.81-.04l.29 7.64h-7.89l-6.59-12.53h-.43l-.04 4.06.29 8.47h-6.59l.36-6.88-.36-16.54h7.89l6.59 12.52h.43l-.21-12.27 6.66-.4-.4 15.93zm15.31-15.93c3.45 0 6.1.94 7.95 2.81 1.84 1.87 2.77 4.57 2.77 8.09 0 4.17-1.08 7.38-3.23 9.63-2.14 2.24-5.22 3.36-9.23 3.36-2.51 0-5.45-.11-8.83-.32l.36-6.88-.36-16.54 10.57-.15zm-.36 18.5c1.13 0 1.99-.45 2.59-1.36.59-.9.88-2.39.88-4.47 0-1.76-.12-3.14-.36-4.16-.24-1.01-.63-1.74-1.16-2.19-.53-.45-1.26-.67-2.2-.67-.92 0-1.83.05-2.72.15l-.25 10.17.07 2.24c1.45.19 2.5.29 3.15.29zm38.3-6.48l-.04 3.73c-.03 2.65-.92 4.69-2.68 6.12-1.76 1.42-4.28 2.13-7.56 2.13-3.17 0-5.59-.71-7.26-2.13-1.68-1.43-2.48-3.47-2.41-6.12l.11-3.73-.22-11.87h7.28l-.33 14.62c-.02 1.23.21 2.13.71 2.68.49.56 1.29.83 2.4.83 1.14 0 1.96-.27 2.47-.83.5-.55.74-1.45.72-2.68l-.33-14.62h7.39l-.25 11.87zm12.95-12.31c2.3 0 4.56.43 6.81 1.27l-1.16 5.9-1.01.44c-1.02-.63-2.02-1.13-3.01-1.49-.99-.36-1.78-.54-2.39-.54-.55 0-.99.11-1.32.32-.32.22-.48.51-.48.87 0 .46.24.85.74 1.18.49.33 1.32.75 2.47 1.29 1.36.6 2.47 1.16 3.34 1.68.86.52 1.62 1.23 2.28 2.13.65.91.97 2.02.97 3.35 0 1.47-.4 2.81-1.21 4-.81 1.2-1.96 2.14-3.46 2.84-1.49.7-3.23 1.05-5.21 1.05-2.46 0-5.04-.45-7.75-1.37l1.06-6.3.72-.43c1.11.84 2.3 1.51 3.56 2 1.27.5 2.33.75 3.17.75.68 0 1.16-.12 1.47-.35.3-.23.45-.51.45-.85 0-.51-.26-.93-.78-1.28s-1.35-.78-2.51-1.29c-1.33-.58-2.42-1.13-3.28-1.65-.86-.51-1.6-1.23-2.22-2.13-.63-.91-.95-2.02-.95-3.35 0-1.52.41-2.89 1.23-4.11.82-1.22 1.97-2.18 3.44-2.88 1.47-.7 3.15-1.05 5.03-1.05zm25.3 0c3.41 0 6.04 1.01 7.9 3.03 1.85 2.01 2.78 4.85 2.78 8.52 0 4.06-1.02 7.19-3.06 9.41-2.03 2.22-4.92 3.33-8.66 3.33-3.41 0-6.04-1.02-7.9-3.05-1.85-2.04-2.78-4.93-2.78-8.68 0-4 1.02-7.1 3.06-9.28 2.03-2.18 4.93-3.28 8.66-3.28zm-.65 5.8c-.94 0-1.65.16-2.13.48-.48.33-.83.9-1.03 1.72-.21.83-.31 2.02-.31 3.59 0 2 .11 3.52.32 4.56.22 1.04.59 1.76 1.11 2.17.52.41 1.28.62 2.3.62.94 0 1.65-.17 2.13-.49.48-.33.83-.91 1.04-1.74.2-.83.3-2.03.3-3.6 0-1.98-.11-3.49-.32-4.53-.22-1.03-.59-1.76-1.11-2.17-.52-.41-1.28-.61-2.3-.61zm34.68 10.42l.29 7.64h-7.89l-6.59-12.53h-.43l-.04 4.06.29 8.47h-6.59l.36-6.88-.36-16.54h7.9l6.58 12.52h.44l-.22-12.27 6.66-.4-.4 15.93zM106.22 71.7c0-22.2-17.99-40.19-40.19-40.19S25.84 49.5 25.84 71.7c0 18.85 12.97 34.67 30.48 39.01V83.98h-8.29V71.7h8.29v-5.29c0-13.68 6.19-20.02 19.62-20.02 2.55 0 6.94.5 8.74 1v11.13c-.95-.1-2.6-.15-4.64-.15-6.59 0-9.14 2.5-9.14 8.99v4.34h13.13l-2.26 12.28H70.9v27.62c19.9-2.4 35.32-19.35 35.32-39.9z"/></svg>