<svg xmlns="http://www.w3.org/2000/svg" shape-rendering="geometricPrecision" text-rendering="geometricPrecision" image-rendering="optimizeQuality" fill-rule="evenodd" clip-rule="evenodd" viewBox="0 0 512 161.07"><path d="M500.03 0H11.97C5.38 0 0 5.38 0 11.97V149.1c0 6.59 5.38 11.97 11.97 11.97h488.06c6.59 0 11.97-5.38 11.97-11.97V11.97C512 5.38 506.62 0 500.03 0z"/><path fill="#1A1A1A" fill-rule="nonzero" d="M360.64 156.87V0h7.84v156.87z"/><path fill="#1A1A1A" fill-rule="nonzero" d="M1.84 145.82c0 3.04 1.25 5.8 3.25 7.81 2 2 4.76 3.24 7.8 3.24h486.22c3.04 0 5.8-1.24 7.8-3.24 2-2.01 3.25-4.77 3.25-7.81L512 10.14v135.68c0 3.55-1.45 6.78-3.78 9.11a12.901 12.901 0 01-9.11 3.78H12.89c-3.54 0-6.77-1.45-9.1-3.78A12.833 12.833 0 010 145.82V10.14l1.84 135.68z"/><path fill="#1A1A1A" fill-rule="nonzero" d="M47.87 72.96l-.13 6.41h3.46l4.78-.13.39.51-.43 5.13-5.25-.13h-3.04l-.04 1.49.26 8.84h-6.96l.38-8.15-.38-19.4h17.25l.39.52-.47 5.12-6.67-.25-3.54.04zm25.85-5.85c3.93 0 6.96 1.17 9.1 3.52 2.13 2.35 3.2 5.69 3.2 10.02 0 4.72-1.17 8.39-3.5 11-2.34 2.6-5.62 3.91-9.87 3.91-3.9 0-6.92-1.21-9.05-3.61-2.14-2.41-3.21-5.82-3.21-10.24 0-4.67 1.16-8.27 3.48-10.8 2.33-2.54 5.61-3.8 9.85-3.8zm-.6 5.55c-1.34 0-2.4.26-3.2.79-.8.53-1.38 1.38-1.75 2.56-.37 1.18-.56 2.79-.56 4.81 0 2.42.19 4.32.56 5.7.37 1.38.96 2.37 1.77 2.97.81.6 1.91.9 3.31.9 1.37 0 2.45-.27 3.25-.79.79-.53 1.37-1.39 1.73-2.59.35-1.19.53-2.83.53-4.91 0-2.39-.18-4.27-.55-5.64-.38-1.37-.96-2.34-1.76-2.92-.79-.59-1.9-.88-3.33-.88zm33.93 17.26l-.47 5.16H91.07l.39-8.15-.39-19.4h7.05l-.38 18.71.13 3.16h8.75l.43.52zm20.39 0l-.47 5.16h-15.51l.38-8.15-.38-19.4h7.05l-.39 18.71.13 3.16h8.76l.43.52zm14.74-22.81c3.93 0 6.96 1.17 9.1 3.52 2.14 2.35 3.2 5.69 3.2 10.02 0 4.72-1.16 8.39-3.5 11-2.33 2.6-5.62 3.91-9.87 3.91-3.9 0-6.92-1.21-9.05-3.61-2.14-2.41-3.2-5.82-3.2-10.24 0-4.67 1.15-8.27 3.48-10.8 2.32-2.54 5.6-3.8 9.84-3.8zm-.6 5.55c-1.33 0-2.4.26-3.2.79-.8.53-1.38 1.38-1.75 2.56-.37 1.18-.56 2.79-.56 4.81 0 2.42.19 4.32.56 5.7.37 1.38.96 2.37 1.77 2.97.81.6 1.92.9 3.31.9 1.37 0 2.45-.27 3.25-.79.8-.53 1.37-1.39 1.73-2.59.35-1.19.53-2.83.53-4.91 0-2.39-.18-4.27-.55-5.64-.37-1.37-.96-2.34-1.75-2.92-.8-.59-1.91-.88-3.34-.88zm44.27 22.42h-7.31l-3.46-11.87h-.43l-3.41 11.87h-7.35l-7.22-27.55h6.75l.43 3.76 3.97 16.75h.43l4.06-13.93-1.71-6.58h7l.6 4.45 4.14 16.06h.43l4.66-16.36.72-4.15h6.41l-8.71 27.55zm43.03-13.58l-.04 3.97c.03 3.22-.96 5.7-2.97 7.44-2.01 1.73-4.86 2.6-8.56 2.6-3.59 0-6.33-.85-8.23-2.56-1.89-1.71-2.79-4.16-2.71-7.35l.09-4.18-.17-13.89h6.92l-.3 17.13c-.03 1.83.34 3.16 1.11 4.02.77.85 1.96 1.28 3.59 1.28 1.65 0 2.86-.42 3.65-1.26.78-.84 1.16-2.13 1.13-3.87l-.3-17.3h7.05l-.26 13.97zm16.63-14.39c2.45 0 4.92.48 7.43 1.45l-1.11 5.81-1.02.38c-1.09-.71-2.17-1.26-3.25-1.66-1.08-.4-2.02-.6-2.82-.6-.94 0-1.69.23-2.24.7-.56.47-.84 1.02-.84 1.65 0 .71.35 1.32 1.05 1.81.7.5 1.8 1.09 3.31 1.78 1.6.74 2.88 1.41 3.87 2.02.98.62 1.83 1.44 2.56 2.46.73 1.03 1.09 2.28 1.09 3.76 0 1.65-.45 3.15-1.35 4.49-.89 1.33-2.17 2.39-3.82 3.18-1.65.78-3.56 1.17-5.72 1.17-2.88 0-5.73-.57-8.55-1.71l.99-6.19.72-.43c1.2 1 2.5 1.77 3.91 2.33 1.41.56 2.63.83 3.65.83 1.08 0 1.9-.24 2.46-.72.55-.49.83-1.06.83-1.71 0-.77-.35-1.41-1.07-1.92-.71-.52-1.82-1.11-3.33-1.8-1.54-.71-2.8-1.37-3.78-1.98a8.728 8.728 0 01-2.54-2.46c-.71-1.02-1.07-2.28-1.07-3.76 0-1.68.45-3.19 1.35-4.55.9-1.35 2.15-2.41 3.76-3.18 1.61-.77 3.45-1.15 5.53-1.15zm32.91 0c3.93 0 6.96 1.17 9.1 3.52 2.14 2.35 3.2 5.69 3.2 10.02 0 4.72-1.16 8.39-3.5 11-2.33 2.6-5.62 3.91-9.87 3.91-3.9 0-6.92-1.21-9.05-3.61-2.14-2.41-3.21-5.82-3.21-10.24 0-4.67 1.16-8.27 3.48-10.8 2.33-2.54 5.61-3.8 9.85-3.8zm-.6 5.55c-1.33 0-2.4.26-3.2.79-.8.53-1.38 1.38-1.75 2.56-.37 1.18-.56 2.79-.56 4.81 0 2.42.19 4.32.56 5.7.37 1.38.96 2.37 1.77 2.97.81.6 1.92.9 3.31.9 1.37 0 2.45-.27 3.25-.79.79-.53 1.37-1.39 1.73-2.59.35-1.19.53-2.83.53-4.91 0-2.39-.18-4.27-.55-5.64-.37-1.37-.96-2.34-1.75-2.92-.8-.59-1.91-.88-3.34-.88zm41.7 13.71l.26 8.71h-7.52l-9.78-17.04h-.43l-.04 7.35.26 9.69h-6.28l.34-8.11-.34-19.44h7.47l9.83 17.05h.42l-.17-16.79 6.37-.38-.39 18.96z"/><path fill="#fff" fill-rule="nonzero" d="M46.48 71.28l-.12 6.48h3.49l4.84-.13.38.52-.43 5.17-5.31-.12h-3.06l-.04 1.51.25 8.93h-7.03l.39-8.24-.39-19.6h17.44l.39.52-.48 5.18-6.73-.26-3.59.04zm26.13-5.91c3.97 0 7.03 1.19 9.19 3.56 2.16 2.38 3.24 5.75 3.24 10.12 0 4.78-1.18 8.48-3.54 11.12-2.36 2.63-5.68 3.95-9.97 3.95-3.94 0-6.99-1.22-9.15-3.65-2.16-2.43-3.24-5.88-3.24-10.34 0-4.72 1.18-8.36 3.52-10.92 2.35-2.56 5.66-3.84 9.95-3.84zM72 70.98c-1.35 0-2.43.27-3.23.8-.81.53-1.4 1.4-1.77 2.59-.38 1.19-.56 2.81-.56 4.86 0 2.44.18 4.36.56 5.76.37 1.39.97 2.39 1.79 3 .82.6 1.93.9 3.34.9 1.38 0 2.48-.26 3.28-.8.81-.53 1.39-1.4 1.75-2.61.36-1.21.54-2.86.54-4.96 0-2.42-.19-4.32-.56-5.7-.37-1.38-.96-2.36-1.77-2.95-.8-.59-1.93-.89-3.37-.89zm34.28 17.44l-.47 5.22H90.14l.39-8.24-.39-19.6h7.12l-.38 18.91.13 3.19h8.84l.43.52zm20.6 0l-.47 5.22h-15.67l.39-8.24-.39-19.6h7.12l-.39 18.91.13 3.19h8.85l.43.52zm14.9-23.05c3.98 0 7.04 1.19 9.2 3.56 2.16 2.38 3.23 5.75 3.23 10.12 0 4.78-1.18 8.48-3.53 11.12-2.36 2.63-5.69 3.95-9.97 3.95-3.95 0-7-1.22-9.15-3.65-2.16-2.43-3.24-5.88-3.24-10.34 0-4.72 1.17-8.36 3.52-10.92 2.34-2.56 5.66-3.84 9.94-3.84zm-.6 5.61c-1.35 0-2.43.27-3.24.8-.8.53-1.39 1.4-1.77 2.59-.37 1.19-.56 2.81-.56 4.86 0 2.44.19 4.36.56 5.76.38 1.39.98 2.39 1.79 3 .82.6 1.94.9 3.35.9 1.38 0 2.47-.26 3.28-.8.81-.53 1.39-1.4 1.75-2.61.36-1.21.54-2.86.54-4.96 0-2.42-.19-4.32-.56-5.7-.38-1.38-.97-2.36-1.77-2.95-.81-.59-1.93-.89-3.37-.89zm44.73 22.66h-7.38l-3.5-12h-.43l-3.45 12h-7.43l-7.29-27.84h6.82l.43 3.8 4.01 16.92h.43l4.1-14.07-1.72-6.65h7.08l.6 4.49 4.19 16.23h.43l4.7-16.53.74-4.19h6.47l-8.8 27.84zm43.48-13.72l-.04 4.01c.03 3.25-.97 5.75-3 7.51-2.03 1.75-4.91 2.63-8.65 2.63-3.63 0-6.4-.86-8.31-2.59-1.92-1.72-2.83-4.2-2.74-7.42l.08-4.23-.17-14.03h6.99l-.3 17.31c-.03 1.84.34 3.19 1.12 4.06.78.86 1.99 1.29 3.63 1.29 1.67 0 2.9-.42 3.69-1.27.79-.85 1.17-2.15 1.14-3.91l-.3-17.48h7.12l-.26 14.12zm16.8-14.55c2.48 0 4.98.49 7.51 1.47l-1.12 5.87-1.04.39a16.24 16.24 0 00-3.28-1.69c-1.09-.4-2.04-.6-2.85-.6-.94 0-1.7.24-2.26.71-.56.48-.84 1.03-.84 1.66 0 .72.35 1.33 1.05 1.84.71.5 1.82 1.1 3.35 1.79 1.61.75 2.91 1.43 3.91 2.05.99.62 1.85 1.44 2.59 2.48.73 1.04 1.1 2.3 1.1 3.8 0 1.67-.46 3.18-1.36 4.53-.91 1.35-2.2 2.42-3.87 3.22-1.67.79-3.59 1.18-5.78 1.18-2.91 0-5.78-.57-8.63-1.72l.99-6.26.73-.43c1.21 1 2.53 1.79 3.95 2.35 1.43.56 2.66.84 3.69.84 1.1 0 1.92-.24 2.49-.73.56-.49.84-1.07.84-1.73 0-.78-.36-1.42-1.08-1.94-.72-.52-1.84-1.13-3.37-1.82-1.55-.71-2.83-1.38-3.82-2-.99-.62-1.85-1.45-2.57-2.48-.72-1.04-1.07-2.31-1.07-3.8 0-1.7.45-3.23 1.35-4.6.91-1.37 2.18-2.44 3.8-3.21 1.63-.78 3.49-1.17 5.59-1.17zm33.26 0c3.97 0 7.03 1.19 9.19 3.56 2.16 2.38 3.24 5.75 3.24 10.12 0 4.78-1.18 8.48-3.54 11.12-2.36 2.63-5.68 3.95-9.97 3.95-3.94 0-6.99-1.22-9.15-3.65-2.16-2.43-3.24-5.88-3.24-10.34 0-4.72 1.17-8.36 3.52-10.92 2.34-2.56 5.66-3.84 9.95-3.84zm-.61 5.61c-1.35 0-2.43.27-3.23.8-.81.53-1.4 1.4-1.77 2.59-.38 1.19-.56 2.81-.56 4.86 0 2.44.18 4.36.56 5.76.37 1.39.97 2.39 1.79 3 .82.6 1.93.9 3.34.9 1.38 0 2.48-.26 3.28-.8.81-.53 1.39-1.4 1.75-2.61.36-1.21.54-2.86.54-4.96 0-2.42-.19-4.32-.56-5.7-.38-1.38-.96-2.36-1.77-2.95-.81-.59-1.93-.89-3.37-.89zm42.14 13.86l.26 8.8h-7.6l-9.88-17.22h-.43l-.05 7.42.26 9.8h-6.34l.34-8.2-.34-19.64h7.55l9.93 17.22h.43l-.17-16.96 6.43-.39-.39 19.17zM460.17 49.25h10.61l-23.18 26.5 27.28 36.07h-21.36l-16.73-21.88-19.14 21.88h-10.62l24.8-28.35-26.17-34.22h21.9l15.12 19.99 17.49-19.99zm-3.72 56.21h5.88l-37.96-50.19h-6.31l38.39 50.19z"/></svg>